<svg width="26" height="33" viewBox="0 0 26 33" fill="none" xmlns="http://www.w3.org/2000/svg">
<path d="M25.1608 17.4682C22.609 10.902 13.5231 10.5479 15.7174 1.00432C15.8799 0.2962 15.116 -0.250987 14.4983 0.119169C8.59823 3.56323 4.356 10.4674 7.91558 19.5121C8.20814 20.2524 7.33044 20.9445 6.69655 20.4616C3.75462 18.2568 3.4458 15.0863 3.70586 12.8171C3.80338 11.9802 2.69812 11.5779 2.22676 12.2699C1.12151 13.9437 0 16.6474 0 20.7191C0.617643 29.7316 8.30567 32.4998 11.0688 32.8538C15.0185 33.3527 19.2932 32.6285 22.3652 29.8443C25.7459 26.7382 26.9812 21.7813 25.1608 17.4682ZM10.0773 25.5634C12.4179 25.0001 13.6206 23.3263 13.9457 21.8457C14.4821 19.5443 12.3854 17.2912 13.7994 13.654C14.3358 16.6635 19.1144 18.5465 19.1144 21.8296C19.2444 25.9013 14.7909 29.3937 10.0773 25.5634Z" fill="#FF4D00"/>
</svg>
