<svg width="61" height="61" viewBox="0 0 61 61" fill="none" xmlns="http://www.w3.org/2000/svg">
<path d="M35.8674 33.7233H34.7381L34.3379 33.3373C35.7387 31.7078 36.582 29.5923 36.582 27.291C36.582 22.1595 32.4225 18 27.291 18C22.1595 18 18 22.1595 18 27.291C18 32.4225 22.1595 36.582 27.291 36.582C29.5923 36.582 31.7078 35.7387 33.3373 34.3379L33.7233 34.7381V35.8674L40.8702 43L43 40.8702L35.8674 33.7233ZM27.291 33.7233C23.7318 33.7233 20.8588 30.8502 20.8588 27.291C20.8588 23.7318 23.7318 20.8588 27.291 20.8588C30.8502 20.8588 33.7233 23.7318 33.7233 27.291C33.7233 30.8502 30.8502 33.7233 27.291 33.7233Z" fill="white"/>
</svg>
